<?xml version="1.0" encoding="UTF-8"?>
<svg id="Layer_2" xmlns="http://www.w3.org/2000/svg" xmlns:xlink="http://www.w3.org/1999/xlink" viewBox="0 0 351.01 310.86">
  <defs>
    <style>
      .cls-1 {
        fill: url(#linear-gradient-2);
      }

      .cls-2 {
        fill: url(#linear-gradient);
      }
    </style>
    <linearGradient id="linear-gradient" x1="275.5" y1="4.91" x2="104.52" y2="301.06" gradientUnits="userSpaceOnUse">
      <stop offset="0" stop-color="#50516e"/>
      <stop offset="1" stop-color="#0d133c"/>
    </linearGradient>
    <linearGradient id="linear-gradient-2" x1="108.84" y1="58.91" x2="43.07" y2="172.84" xlink:href="#linear-gradient"/>
  </defs>
  <g id="Layer_1-2" data-name="Layer_1">
    <g>
      <path class="cls-2" d="M219.85,232.77c0,1.59,0,3.37,0,5.16,0,22.49-.09,44.99.12,67.48.04,4.24-1.36,5.44-5.41,5.42-30.33-.11-60.65-.1-90.98.02-3.84.02-4.73-1.41-4.71-4.99.13-25.33-.13-50.66.12-75.98.54-54.62,46.47-99.28,101.14-98.6,3.17.04,6.35-.19,9.49.08,4,.34,5.73-.88,5.54-5.23-.31-6.98-.2-14,.03-20.99.12-3.77-1.38-4.75-4.98-4.88-9.97-.34-20.09-.14-29.85-1.88-44.98-8.02-79.38-48.26-81.1-93.87-.13-3.37.86-4.34,4.12-4.33,40.66.13,81.34-.77,121.96.56,26.06.85,49,11.97,68.14,29.85,27.38,25.57,40.06,57.52,37.11,94.65-4.47,56.42-47.32,97.81-97.48,105.01-10.79,1.55-21.79,1.69-33.26,2.52Z"/>
      <path class="cls-1" d="M76,191.85C57.82,159.02,32.89,134.05,0,115.86c32.9-18.11,57.73-43.16,76-75.91,18.23,32.76,42.95,57.72,75.95,75.86-32.74,18.26-57.79,43.04-75.95,76.04Z"/>
    </g>
  </g>
</svg>